<?xml version="1.0" standalone="no"?>
<!DOCTYPE svg PUBLIC "-//W3C//DTD SVG 20010904//EN"
 "http://www.w3.org/TR/2001/REC-SVG-20010904/DTD/svg10.dtd">
<svg version="1.0" xmlns="http://www.w3.org/2000/svg"
 width="328.000000pt" height="328.000000pt" viewBox="0 0 328.000000 328.000000"
 preserveAspectRatio="xMidYMid meet">
<metadata>
Created by potrace 1.11, written by Peter Selinger 2001-2013
</metadata>
<g transform="translate(0.000000,328.000000) scale(0.100000,-0.100000)"
fill="#000000" stroke="none">
<path d="M670 3233 c-2 -307 -22 -399 -128 -593 -5 -8 -17 -31 -27 -50 -43
-82 -106 -187 -130 -214 -14 -16 -25 -34 -25 -40 0 -6 -11 -23 -25 -38 -14
-15 -25 -30 -25 -34 0 -7 -77 -103 -96 -119 -13 -12 -144 -202 -144 -210 0 -3
-11 -28 -24 -56 -14 -28 -23 -56 -20 -63 3 -7 -2 -19 -11 -26 -11 -9 -15 -33
-15 -101 0 -86 1 -89 19 -77 11 7 24 21 30 32 18 34 45 79 64 106 9 13 17 32
17 40 0 9 19 39 43 68 64 78 107 138 107 150 0 7 4 12 9 12 5 0 23 21 40 47
17 25 31 43 31 38 0 -5 11 2 25 15 14 13 25 28 25 34 0 6 21 30 47 53 25 23
47 53 49 65 1 13 3 26 3 29 1 3 16 13 35 22 19 9 38 26 41 39 4 13 12 26 18
30 6 3 10 21 10 40 0 18 5 40 12 48 7 8 20 31 29 50 9 19 25 51 36 70 11 19
20 43 20 53 0 17 6 27 38 62 7 8 16 38 19 67 3 29 9 55 12 58 10 8 34 110 27
117 -3 3 -12 0 -21 -7 -19 -16 -19 -10 0 26 8 16 15 37 15 47 0 11 10 27 23
38 14 11 17 18 8 19 -10 0 -12 9 -7 35 9 44 -12 118 -31 111 -7 -3 -13 -1 -13
4 0 6 -6 10 -14 10 -8 0 -18 9 -21 20 -5 15 -15 20 -41 20 -34 0 -34 0 -34
-47z m124 -78 c-4 -8 -8 -15 -10 -15 -2 0 -4 7 -4 15 0 8 4 15 10 15 5 0 7 -7
4 -15z"/>
<path d="M780 3263 c0 -13 5 -23 10 -23 13 0 13 11 0 30 -8 12 -10 11 -10 -7z"/>
<path d="M1065 3208 c39 -218 49 -326 47 -501 -3 -145 0 -183 12 -209 9 -17
16 -37 16 -45 0 -7 5 -13 10 -13 6 0 10 -7 10 -15 0 -8 12 -26 26 -41 26 -25
27 -28 21 -114 -4 -49 -14 -106 -23 -127 -9 -21 -20 -47 -24 -58 -32 -83 -54
-133 -68 -147 -16 -20 -42 -24 -42 -8 0 6 -6 10 -14 10 -21 0 -24 8 -39 103
-11 66 -11 95 -3 122 6 19 14 35 18 35 5 0 8 10 8 23 0 12 11 35 25 51 14 16
25 42 25 58 0 15 5 28 11 28 7 0 9 20 6 58 -5 55 -33 202 -37 192 -1 -3 -3
-36 -4 -75 -3 -73 -23 -155 -38 -155 -4 0 -8 -7 -8 -15 0 -8 -16 -43 -35 -79
-46 -85 -55 -132 -61 -310 -4 -142 -10 -192 -34 -310 -7 -36 -6 -66 5 -120 20
-97 45 -176 66 -206 9 -14 20 -45 23 -69 7 -45 30 -99 51 -116 13 -10 24 -49
28 -92 1 -12 9 -28 18 -35 8 -7 31 -39 49 -70 19 -32 38 -58 42 -58 4 0 8 -8
8 -18 0 -21 30 -49 81 -75 18 -10 52 -33 73 -52 22 -19 43 -32 47 -29 4 2 28
-12 53 -31 26 -19 51 -35 57 -35 6 0 31 -13 56 -30 24 -16 46 -30 49 -30 6 0
46 -39 65 -64 12 -18 12 -19 -1 -12 -8 4 2 -8 23 -28 20 -20 37 -41 37 -46 0
-6 4 -10 8 -10 11 0 32 -69 32 -104 0 -14 -4 -26 -10 -26 -5 0 -10 -5 -10 -10
0 -6 -16 -28 -35 -49 -38 -41 -70 -47 -113 -20 -21 12 -25 12 -36 -3 -7 -10
-15 -15 -18 -12 -3 2 -17 -1 -31 -7 -20 -9 -30 -9 -40 0 -8 6 -29 13 -48 15
-18 2 -35 10 -38 17 -6 18 -62 68 -83 75 -10 3 -18 13 -18 23 0 23 -24 43 -52
45 -12 0 -23 7 -26 14 -2 8 2 10 15 5 16 -6 16 -5 4 10 -10 12 -17 14 -26 7
-9 -8 -14 -6 -19 5 -3 8 -1 15 3 15 5 0 7 9 4 20 -3 11 -12 20 -20 20 -11 0
-58 84 -62 113 -2 19 -33 67 -42 67 -6 0 -9 7 -5 15 4 13 -19 49 -61 93 -7 7
-13 19 -13 26 0 7 -9 21 -20 31 -11 10 -20 24 -20 31 0 6 -11 22 -25 35 -18
18 -25 35 -25 63 0 21 -6 44 -14 50 -15 12 -46 119 -46 159 0 14 -4 29 -10 32
-5 3 -10 19 -10 35 0 29 -15 48 -28 35 -27 -27 24 -355 69 -446 16 -32 29 -65
29 -73 0 -8 9 -35 20 -61 11 -26 20 -64 20 -85 0 -21 5 -40 11 -42 7 -2 12
-35 13 -83 1 -44 7 -90 14 -102 7 -12 12 -36 12 -53 0 -17 7 -41 16 -55 12
-18 13 -28 4 -44 -6 -12 -7 -21 -2 -21 5 0 24 -29 42 -64 18 -36 41 -74 51
-85 11 -11 19 -27 19 -36 0 -14 41 -15 393 -11 215 3 415 6 442 7 28 1 75 0
105 -1 91 -6 226 19 243 44 10 16 26 -11 20 -35 -5 -18 4 -19 232 -19 232 0
237 0 232 20 -7 26 5 26 21 0 18 -30 30 -24 26 14 -4 31 -2 34 26 38 27 4 33
1 45 -29 8 -18 21 -33 29 -33 8 0 21 -3 30 -6 13 -5 14 -2 5 25 -6 17 -15 31
-19 31 -4 0 -15 16 -25 36 -14 30 -15 38 -4 45 11 6 11 12 -1 33 -15 29 -30
34 -30 10 0 -9 -5 -12 -11 -8 -7 4 -20 -4 -30 -17 -16 -21 -20 -22 -43 -10
-13 8 -34 11 -46 8 -11 -3 -27 1 -34 9 -8 8 -19 14 -24 14 -6 0 -20 16 -33 36
-16 27 -24 33 -31 22 -5 -8 -6 0 -2 23 5 34 4 37 -25 47 -21 8 -31 18 -31 31
0 12 -4 21 -10 21 -6 0 -6 9 0 25 6 15 6 26 -1 30 -5 4 -9 59 -8 132 1 69 -3
128 -8 132 -5 3 -14 42 -21 86 -15 102 -29 150 -49 171 -10 9 -18 22 -20 28
-7 36 -33 87 -66 131 -36 48 -58 104 -61 155 -1 14 -7 35 -14 47 -19 34 -14
50 15 56 39 7 119 -21 157 -55 22 -20 42 -23 51 -8 4 6 11 8 16 5 5 -4 9 9 9
29 0 29 -9 43 -57 90 -229 223 -273 267 -273 276 0 16 40 12 46 -5 4 -8 12
-15 20 -15 13 0 19 -13 15 -34 -1 -4 9 -6 22 -2 16 4 29 0 38 -10 11 -14 70
-45 94 -50 6 -1 12 -3 15 -4 21 -7 60 -7 60 2 0 19 -34 68 -47 68 -7 0 -13 4
-13 10 0 15 -99 108 -158 148 -29 19 -51 41 -50 50 2 8 -6 19 -16 26 -31 18
-171 177 -206 233 -8 13 -26 30 -40 36 -14 7 -31 25 -38 40 -7 15 -19 27 -27
27 -7 0 -20 6 -27 13 -7 7 -36 27 -64 45 -29 18 -64 44 -78 57 -15 14 -30 25
-35 25 -4 0 -22 13 -41 30 -29 26 -33 35 -33 82 -1 70 28 138 59 138 12 0 24
5 26 11 6 17 70 3 98 -21 12 -11 31 -22 41 -25 10 -3 21 -14 24 -23 3 -9 28
-41 55 -70 28 -29 50 -59 50 -67 0 -8 6 -18 13 -22 7 -4 23 -28 34 -53 33 -71
83 -115 259 -231 65 -43 165 -135 194 -179 8 -12 20 -28 25 -34 21 -22 102
-142 127 -186 14 -25 38 -97 53 -160 33 -145 83 -336 97 -375 55 -156 101
-239 191 -339 9 -11 17 -24 17 -30 0 -5 6 -17 14 -25 7 -9 21 -41 30 -71 10
-30 20 -61 22 -69 3 -11 10 -9 28 8 l24 22 15 -21 c15 -21 15 -20 12 15 -2 23
-16 53 -36 77 -25 32 -29 42 -18 49 11 6 11 11 1 21 -26 26 -14 41 27 34 22
-3 46 -9 55 -12 27 -11 19 30 -13 60 -26 25 -30 26 -38 11 -19 -34 -94 65 -85
112 1 6 -20 34 -48 62 -54 54 -57 60 -38 79 9 9 10 15 2 20 -7 4 -12 18 -12
32 0 14 -9 41 -21 60 -32 53 -51 97 -51 119 0 11 -7 27 -16 36 -9 8 -16 31
-17 50 0 18 -5 32 -9 29 -4 -3 -8 12 -8 33 0 36 -68 189 -101 229 -17 21 -47
73 -74 131 -14 29 -36 63 -50 75 -14 12 -25 27 -25 34 0 6 -7 17 -15 24 -8 7
-12 17 -9 22 3 5 -3 12 -14 14 -10 3 -36 26 -57 50 -21 26 -43 43 -50 40 -8
-3 -29 14 -50 40 -20 24 -44 44 -54 44 -10 0 -23 11 -29 25 -8 17 -20 25 -36
25 -14 0 -30 8 -35 19 -6 10 -23 24 -38 30 -26 11 -63 70 -63 99 0 7 -4 12 -9
12 -6 0 -20 18 -32 40 -13 22 -26 40 -31 40 -4 0 -8 6 -8 13 0 8 -9 22 -20 32
-12 10 -18 25 -15 32 2 8 1 11 -5 8 -5 -3 -16 8 -25 25 -16 31 -73 89 -87 90
-5 0 -8 -10 -8 -22 -1 -19 -4 -17 -19 13 -26 53 -80 107 -108 111 -23 3 -29
13 -55 98 -16 52 -35 108 -43 123 -8 16 -15 47 -15 68 0 22 -5 50 -11 61 -6
11 -12 39 -12 62 l-2 41 -87 3 -88 3 11 -28 c15 -39 73 -254 98 -363 9 -39 69
-168 82 -176 12 -7 12 -74 0 -74 -12 0 -61 62 -61 78 0 7 -4 11 -9 7 -11 -6
-20 5 -27 32 -2 10 -17 56 -33 103 -17 47 -30 97 -30 113 -1 15 -5 27 -11 27
-5 0 -10 7 -10 15 0 9 -9 34 -21 56 -19 38 -21 40 -38 25 -17 -16 -17 -19 0
-84 24 -83 25 -211 4 -252 -9 -17 -18 -30 -21 -30 -21 0 -44 26 -50 57 -4 21
-20 60 -37 88 -16 27 -35 66 -43 85 l-13 35 0 -52 c-2 -97 41 -234 82 -264 11
-8 21 -141 13 -174 -6 -24 -10 -26 -39 -19 -18 3 -35 12 -39 18 -4 6 -8 7 -8
3 0 -5 -6 -2 -14 5 -24 25 -37 113 -24 162 12 44 4 119 -23 231 -6 22 -11 70
-12 107 -1 37 -5 68 -10 68 -4 0 -4 36 -1 80 5 55 3 80 -4 80 -6 0 -14 9 -17
20 -5 15 -15 20 -44 20 l-39 0 13 -72z m452 -556 c13 -51 9 -107 -11 -134 -11
-15 -17 -16 -39 -5 -15 6 -27 16 -27 21 0 6 -10 20 -21 33 -22 22 -22 23 -4
80 29 95 31 97 63 72 17 -13 32 -38 39 -67z m-89 -331 c4 -29 -4 -61 -21 -83
-12 -14 -20 -16 -50 -7 -34 9 -53 39 -26 39 6 0 8 7 5 17 -4 9 1 23 12 33 38
36 75 37 80 1z m86 -1 c14 -5 26 -16 26 -24 0 -7 7 -16 15 -20 21 -8 19 -36
-2 -36 -15 0 -15 -2 -4 -9 8 -5 19 -7 26 -5 6 3 22 -7 35 -21 13 -14 29 -25
37 -25 7 0 13 -4 13 -9 0 -5 14 -14 30 -21 17 -7 30 -15 30 -19 0 -3 15 -12
33 -19 17 -7 47 -20 65 -28 18 -8 38 -14 43 -14 14 0 111 -77 122 -97 8 -12 6
-13 -11 -4 -12 6 -23 15 -26 20 -4 5 -41 24 -84 41 -121 50 -165 71 -197 94
-48 34 -69 46 -87 52 -10 4 -18 12 -18 19 0 19 -34 24 -61 9 -13 -7 -29 -13
-35 -14 -20 0 -3 47 22 61 22 11 23 14 9 29 -14 15 -21 50 -11 50 3 0 16 -4
30 -10z m24 -168 c2 -7 -4 -12 -13 -12 -24 0 -13 -24 13 -28 12 -2 22 -7 22
-12 0 -9 -16 -15 -70 -24 -29 -5 -39 -14 -58 -51 -12 -25 -19 -45 -16 -45 3 0
20 12 38 27 17 14 46 32 63 40 53 22 168 19 253 -7 67 -19 81 -28 130 -81 73
-77 103 -154 108 -270 4 -82 2 -90 -32 -161 -43 -89 -133 -181 -193 -197 -73
-19 -194 -17 -243 6 -63 28 -122 93 -165 182 -37 75 -37 76 -32 176 3 55 12
127 21 160 15 60 15 60 -4 35 -27 -35 -52 -150 -52 -240 -1 -66 3 -83 33 -139
42 -81 128 -170 198 -206 51 -25 62 -27 145 -23 85 4 96 8 161 46 71 41 134
95 137 116 3 23 5 32 17 61 47 111 51 205 16 299 -29 77 -29 76 -12 76 38 -1
85 -215 67 -310 -15 -81 -44 -135 -102 -191 -64 -62 -121 -102 -185 -130 -53
-23 -127 -21 -214 5 -53 16 -129 61 -129 76 0 5 -13 22 -28 37 -16 16 -37 43
-47 61 -11 17 -23 32 -28 32 -10 0 24 -59 66 -112 16 -21 24 -38 18 -38 -22 0
-79 68 -111 133 -18 37 -35 67 -37 67 -3 0 -2 -15 2 -32 8 -39 53 -120 91
-166 29 -35 116 -84 143 -81 9 1 25 -2 36 -7 11 -4 81 -8 156 -9 l136 0 -40
-23 c-85 -48 -238 -45 -329 7 -84 48 -154 116 -182 175 -14 30 -26 61 -26 68
0 8 -4 18 -9 24 -13 13 -23 147 -12 163 7 10 11 0 16 -35 10 -76 14 -75 13 1
-1 116 25 229 82 343 11 23 24 42 28 42 4 0 18 23 32 52 29 58 68 108 87 108
7 0 13 7 13 16 0 17 22 14 28 -4z m-220 -18 c25 -7 29 -33 10 -67 -25 -48 -67
-67 -88 -42 -11 14 -11 21 3 45 9 15 17 35 17 43 0 13 12 24 30 26 3 0 15 -2
28 -5z m52 -104 c0 -5 -4 -10 -10 -10 -5 0 -10 5 -10 10 0 6 5 10 10 10 6 0
10 -4 10 -10z m-38 -52 c-7 -7 -12 -8 -12 -2 0 6 3 14 7 17 3 4 9 5 12 2 2 -3
-1 -11 -7 -17z m-89 -44 c3 -4 0 -19 -9 -35 -12 -24 -21 -29 -49 -29 -38 0
-41 6 -23 45 8 19 19 25 43 25 17 0 34 -3 38 -6z m796 -28 c-3 -3 -11 5 -18
17 -13 21 -12 21 5 5 10 -10 16 -20 13 -22z m45 -92 c10 -38 0 -41 -12 -5 -6
17 -7 31 -3 31 5 0 12 -12 15 -26z m-1069 -18 c18 -13 18 -18 6 -67 -7 -30
-17 -74 -22 -98 -9 -43 -24 -71 -39 -71 -4 0 -10 30 -14 66 -6 60 -4 70 22
119 19 35 26 56 18 59 -7 3 -7 5 0 5 5 1 19 -5 29 -13z m175 -6 c0 -26 -28
-132 -37 -141 -5 -4 -17 -9 -28 -13 -16 -4 -20 -1 -22 17 -1 12 -4 34 -6 50
-6 32 6 83 19 80 5 -1 18 -5 28 -9 15 -6 18 -4 13 8 -6 18 0 28 20 28 7 0 13
-9 13 -20z m929 -128 c-1 -44 -3 -51 -9 -32 -12 37 -12 102 0 95 6 -3 10 -32
9 -63z m-969 -101 c-7 -14 -21 -21 -40 -21 -40 0 -40 26 0 35 16 4 33 12 37
18 12 20 15 -10 3 -32z m14 -67 c8 -20 -9 -51 -33 -59 -26 -8 -71 15 -71 36 0
11 9 21 23 23 43 10 62 14 68 15 4 0 10 -6 13 -15z m907 -77 c-24 -38 -59 -73
-66 -65 -3 3 14 33 37 68 28 40 44 56 46 46 2 -9 -6 -31 -17 -49z m-871 -75
c0 -27 -42 -62 -84 -69 -32 -5 -36 -3 -36 16 0 11 3 20 8 20 21 -4 55 3 43 8
-10 4 -3 12 20 24 43 23 49 23 49 1z m950 -38 c0 -9 -5 -14 -12 -12 -18 6 -21
28 -4 28 9 0 16 -7 16 -16z m-890 -28 c0 -23 -36 -79 -56 -86 -59 -23 -60 1
-2 52 39 34 58 45 58 34z m848 -59 c12 -18 22 -44 21 -58 0 -13 -3 -18 -6 -11
-2 6 -11 12 -19 12 -8 0 -14 4 -14 9 0 8 -37 24 -52 22 -16 -2 -7 38 10 48 27
16 35 13 60 -22z m-781 -37 c3 -11 9 -20 14 -20 15 0 10 -47 -6 -60 -8 -7 -15
-17 -15 -23 0 -18 -43 -57 -63 -57 -15 0 -17 3 -8 14 13 16 -1 66 -19 66 -6 0
-2 12 7 27 47 72 80 92 90 53z m680 -52 c27 -29 49 -106 34 -121 -11 -11 -24
0 -57 48 -50 72 -31 131 23 73z m-567 -35 c15 -52 1 -128 -23 -127 -9 0 -33 1
-53 2 -32 2 -35 4 -28 25 3 12 13 29 20 38 8 8 14 26 14 38 0 66 53 84 70 24z
m416 -13 c19 0 64 -40 64 -57 0 -8 7 -27 15 -44 12 -22 14 -41 8 -71 -10 -49
-29 -60 -42 -25 -6 14 -14 28 -20 31 -6 4 -8 13 -5 20 3 7 -2 16 -10 19 -9 4
-16 13 -16 21 0 7 -7 27 -15 42 -8 16 -15 38 -15 50 0 23 13 41 18 25 2 -6 10
-11 18 -11z m-269 -26 c17 -16 17 -104 1 -136 -16 -30 -54 -78 -62 -78 -3 0
-16 10 -27 21 -20 20 -20 23 -5 31 18 10 22 43 6 53 -14 8 0 95 19 117 16 19
44 16 68 -8z m152 -30 c14 -22 21 -52 21 -83 0 -64 -29 -153 -51 -158 -10 -3
-20 -11 -23 -19 -3 -8 -11 -14 -17 -14 -8 0 -10 15 -6 45 3 32 0 50 -9 60 -18
18 -18 30 1 45 9 7 15 29 15 52 0 42 23 108 39 108 5 0 18 -16 30 -36z m499
-136 c7 -7 12 -22 12 -33 0 -12 7 -43 16 -70 14 -38 14 -52 5 -67 -16 -25 -30
-146 -21 -178 8 -29 2 -52 -16 -63 -8 -4 -14 -17 -14 -28 0 -12 -8 -33 -18
-47 -10 -15 -21 -34 -24 -43 -11 -31 -117 -46 -138 -20 -3 3 -18 13 -35 21
-19 10 -35 29 -42 50 -14 42 -17 140 -4 140 6 0 9 12 8 28 -2 20 2 27 16 26
10 -1 17 5 17 15 0 9 20 48 45 85 25 38 45 73 45 77 0 20 65 99 81 99 10 0 21
5 24 10 8 14 28 13 43 -2z m912 -28 c8 -5 11 -12 7 -16 -4 -4 -15 0 -24 9 -18
18 -8 23 17 7z m-1300 -190 c0 -16 -5 -30 -11 -30 -7 0 -19 -9 -28 -19 -16
-18 -18 -18 -39 -3 -39 30 -6 79 56 81 18 1 22 -4 22 -29z m137 -636 c-3 -3
-12 -4 -19 -1 -8 3 -5 6 6 6 11 1 17 -2 13 -5z"/>
<path d="M1410 2610 c0 -5 5 -10 11 -10 5 0 7 5 4 10 -3 6 -8 10 -11 10 -2 0
-4 -4 -4 -10z"/>
<path d="M1600 1975 c-14 -8 -30 -14 -37 -15 -24 0 -82 -46 -107 -84 -49 -75
-59 -231 -21 -322 21 -51 89 -121 140 -145 46 -22 115 -24 181 -7 99 27 171
150 167 288 -2 97 -31 163 -104 238 l-62 62 -66 0 c-38 -1 -77 -7 -91 -15z
m100 -80 c7 -8 17 -15 22 -15 23 0 108 -122 108 -156 0 -7 5 -14 11 -16 6 -2
8 -15 3 -33 -6 -26 -8 -27 -15 -10 -6 15 -8 11 -8 -17 -1 -25 -9 -46 -23 -60
-13 -13 -21 -31 -20 -41 4 -21 -44 -44 -98 -47 -50 -3 -57 -1 -40 10 10 7 4 8
-20 4 -30 -5 -40 -1 -68 25 -17 17 -32 38 -32 47 0 8 -6 22 -14 29 -19 20 -11
99 17 155 12 25 25 47 28 50 3 3 12 15 21 28 17 26 74 61 99 61 9 1 22 -6 29
-14z m137 -277 c-3 -8 -6 -5 -6 6 -1 11 2 17 5 13 3 -3 4 -12 1 -19z"/>
<path d="M1621 1806 c-7 -9 -19 -16 -26 -16 -15 0 -35 -51 -35 -90 0 -49 27
-97 61 -109 62 -21 99 -9 99 33 0 11 12 32 26 47 30 32 27 71 -9 113 -28 32
-97 45 -116 22z"/>
<path d="M749 2073 c-8 -15 -32 -45 -54 -67 -43 -45 -115 -144 -115 -159 0
-14 -64 -84 -157 -169 -28 -25 -54 -56 -58 -67 -3 -12 -11 -21 -16 -21 -5 0
-9 -6 -9 -13 0 -8 -16 -46 -35 -86 -19 -39 -35 -76 -35 -80 0 -5 -3 -11 -7
-13 -5 -1 -26 -38 -48 -82 -22 -43 -52 -92 -67 -108 -16 -17 -28 -37 -28 -46
0 -8 -27 -41 -60 -72 l-60 -57 0 -191 c0 -190 0 -192 20 -180 11 7 26 25 33
41 6 15 15 27 19 27 4 0 16 19 27 42 26 59 158 188 183 180 5 -1 14 9 20 23 6
14 15 25 20 25 4 0 8 8 8 18 0 9 7 30 15 46 8 15 15 37 15 47 0 11 5 19 11 19
7 0 9 10 5 24 -3 14 -2 28 4 31 5 3 10 17 10 31 0 35 48 265 58 278 5 6 15 27
23 46 7 19 41 72 75 118 47 63 66 99 80 150 10 37 20 69 23 72 3 3 20 31 36
64 17 32 40 68 51 81 18 20 41 75 31 75 -2 0 -10 -12 -18 -27z"/>
<path d="M405 1981 c-32 -19 -63 -51 -50 -51 6 0 47 27 84 57 2 2 2 5 0 8 -3
2 -18 -4 -34 -14z"/>
<path d="M528 1969 c-25 -14 -111 -100 -134 -133 -10 -16 -26 -39 -34 -51 -42
-62 -87 -132 -94 -145 -20 -42 -76 -117 -136 -182 -49 -53 -50 -56 -37 -61 7
-3 4 -6 -6 -6 -10 -1 -34 -18 -52 -38 -32 -35 -35 -43 -35 -100 0 -36 4 -63
10 -63 6 0 10 8 10 18 0 12 3 13 8 5 10 -16 52 27 102 102 19 28 42 62 52 77
10 15 18 33 18 41 0 8 18 39 40 70 22 30 40 60 40 66 0 6 3 11 8 11 4 0 16 17
27 37 11 20 25 42 30 48 13 14 27 38 67 117 18 35 50 84 73 110 59 68 67 79
63 83 -2 2 -11 -1 -20 -6z"/>
<path d="M297 1882 c-10 -10 -17 -23 -17 -28 0 -5 -14 -22 -30 -38 -17 -16
-30 -36 -30 -43 0 -8 23 14 50 48 44 55 58 79 47 79 -2 0 -11 -8 -20 -18z"/>
<path d="M746 1840 c-35 -31 -66 -81 -66 -107 0 -7 -3 -13 -7 -13 -9 0 -33
-49 -33 -67 0 -7 -4 -13 -10 -13 -5 0 -7 -6 -4 -14 3 -8 -7 -41 -22 -73 -43
-94 -60 -141 -56 -157 2 -4 -4 -19 -13 -32 -8 -13 -15 -33 -15 -45 0 -13 -8
-48 -19 -78 -22 -67 -51 -191 -51 -220 0 -12 -4 -21 -9 -21 -5 0 -7 -8 -4 -18
2 -10 -3 -31 -11 -47 -9 -17 -16 -40 -16 -53 0 -12 -7 -25 -15 -28 -8 -4 -15
-15 -15 -26 0 -11 -8 -32 -18 -46 -10 -15 -24 -47 -31 -72 -8 -25 -20 -64 -28
-87 -15 -41 -15 -65 2 -258 l6 -60 -26 28 c-14 15 -28 46 -31 68 -4 21 -11 39
-17 39 -6 0 -8 47 -5 133 2 72 1 117 -3 99 -4 -19 -12 -39 -18 -45 -6 -6 -11
-26 -11 -43 0 -18 -4 -35 -9 -39 -6 -3 -13 -27 -16 -53 -4 -26 -11 -57 -17
-69 -6 -12 -8 -33 -6 -47 3 -15 0 -31 -8 -37 -14 -11 -9 -99 7 -130 6 -11 4
-21 -6 -29 -20 -16 -19 -30 2 -45 15 -11 15 -13 -5 -19 -30 -10 -36 -40 -16
-81 l16 -35 224 0 c123 0 224 4 224 9 0 5 34 44 75 87 82 85 102 120 134 236
33 116 28 220 -13 272 -15 18 -16 18 -36 -5 -11 -13 -28 -41 -36 -61 -9 -21
-20 -38 -25 -38 -5 0 -9 -17 -9 -37 -1 -31 -10 -48 -50 -93 -47 -52 -50 -54
-68 -37 -10 9 -24 17 -30 17 -7 0 -12 16 -12 41 0 22 -6 46 -13 54 -22 22 -29
141 -11 177 8 16 15 44 15 61 0 18 4 41 8 52 37 97 65 187 69 223 2 23 8 42
13 42 5 0 9 11 9 24 0 14 5 28 10 31 14 8 13 51 -2 74 -9 15 -8 24 5 44 9 13
13 34 10 46 -3 12 -1 21 5 21 6 0 16 19 22 43 6 23 24 69 40 103 47 94 74 214
49 214 -6 0 -3 7 5 16 9 8 16 23 16 32 0 9 3 28 7 41 4 17 3 22 -5 17 -7 -4
-12 -1 -12 8 0 8 4 17 9 20 10 7 26 124 18 132 -3 3 -21 -9 -41 -26z"/>
<path d="M144 1678 c-11 -13 -28 -41 -39 -63 -20 -40 -59 -85 -74 -85 -19 0
-32 -31 -29 -71 l3 -42 42 43 c23 24 50 59 60 79 10 19 30 56 46 80 40 67 34
109 -9 59z"/>
<path d="M2696 994 c4 -27 11 -57 15 -66 5 -9 9 -29 9 -44 0 -31 20 -105 32
-119 4 -5 8 -18 8 -28 0 -10 6 -31 14 -45 14 -27 18 -37 56 -127 32 -76 39
-89 71 -126 16 -19 29 -40 29 -48 0 -8 -8 -4 -20 10 l-19 24 -1 -28 c0 -15 7
-44 15 -63 17 -41 13 -54 -16 -54 -11 0 -17 -4 -14 -10 3 -6 14 -10 23 -10 9
0 25 -14 34 -30 9 -17 13 -30 8 -30 -18 0 -11 -58 8 -64 9 -3 25 -18 34 -33
10 -16 18 -23 18 -16 0 22 -21 66 -37 78 -10 7 -14 19 -10 29 6 15 8 15 27 -1
11 -10 20 -23 20 -30 0 -7 6 -13 14 -13 12 0 12 4 1 28 -7 15 -16 38 -20 50
l-7 24 21 -21 c12 -12 21 -25 21 -30 0 -5 7 -14 15 -21 23 -19 19 7 -9 66 -42
89 -66 152 -66 177 0 21 4 24 21 20 20 -6 21 -3 15 31 -9 47 -125 286 -139
286 -4 0 -5 11 -1 25 5 19 1 27 -12 32 -29 11 -41 26 -49 64 -4 19 -20 46 -36
60 -16 14 -29 32 -29 41 0 8 -11 25 -25 38 l-25 24 6 -50z m289 -713 c4 -15 3
-21 -3 -17 -5 3 -12 17 -15 32 -5 30 8 20 18 -15z"/>
<path d="M3162 913 c14 -16 33 -39 43 -53 11 -15 15 -18 11 -7 -3 10 -6 22 -6
25 0 14 -48 62 -61 62 -8 0 -3 -11 13 -27z"/>
<path d="M3240 708 c0 -2 9 -25 20 -53 l19 -50 1 41 c0 37 -13 64 -32 64 -4 0
-8 -1 -8 -2z"/>
<path d="M3090 503 c0 -17 52 -92 74 -106 43 -28 38 -2 -10 57 -42 51 -64 68
-64 49z"/>
<path d="M3047 427 c-5 -13 41 -77 56 -77 10 0 -14 52 -33 73 -14 15 -18 16
-23 4z"/>
<path d="M3240 430 c0 -17 39 -71 40 -55 0 6 -9 24 -20 40 -11 17 -20 23 -20
15z"/>
<path d="M3120 188 c0 -17 23 -78 30 -78 3 0 5 20 5 45 0 37 -3 45 -17 45 -10
0 -18 -5 -18 -12z"/>
<path d="M2920 122 c0 -5 7 -15 15 -22 8 -7 15 -8 15 -2 0 5 -7 15 -15 22 -8
7 -15 8 -15 2z"/>
<path d="M3180 35 c0 -15 18 -40 24 -34 3 3 -1 14 -9 25 -8 10 -14 15 -15 9z"/>
</g>
</svg>
